<svg xmlns="http://www.w3.org/2000/svg" viewBox="0 0 1200 400" width="1200" height="400" role="img" aria-label="Laxus Dreyar - just a small dev" xmlns:c2pa="http://c2pa.org/manifest"><metadata><c2pa:manifest>AAAWgmp1bWIAAAAeanVtZGMycGEAEQAQgAAAqgA4m3EDYzJwYQAAABZcanVtYgAAAEdqdW1kYzJtYQARABCAAACqADibcQN1cm46YzJwYTpjZmU5MGM4NC1mNjFlLTQ5N2EtYWU0NC1lMDRlNWNjY2MyZjcAAAADl2p1bWIAAAApanVtZGMyYXMAEQAQgAAAqgA4m3EDYzJwYS5hc3NlcnRpb25zAAAAALxqdW1iAAAARGp1bWRjYm9yABEAEIAAAKoAOJtxE2MycGEuaW5ncmVkaWVudC52MwAAAAAYYzJzaLACCBXafqavLUZnGGZZnB4AAABwY2JvcqNpZGM6Zm9ybWF0bWltYWdlL3N2Zyt4bWxqaW5zdGFuY2VJRHgseG1wOmlpZDo3ZmQzNGNlMi0yY2RkLTQyNDMtODdlZi02MTk0MDJhNmZmOWRscmVsYXRpb25zaGlwaHBhcmVudE9mAAAB4mp1bWIAAABBanVtZGNib3IAEQAQgAAAqgA4m3ETYzJwYS5hY3Rpb25zLnYyAAAAABhjMnNoQ1jWTtmR3Gh7bTnrN4HPUgAAAZljYm9yomdhY3Rpb25zgqJmYWN0aW9ua2MycGEub3BlbmVkanBhcmFtZXRlcnOha2luZ3JlZGllbnRzgaJjdXJseC1zZWxmI2p1bWJmPWMycGEuYXNzZXJ0aW9ucy9jMnBhLmluZ3JlZGllbnQudjNkaGFzaFggDWlsdVxSChsVuiaZ0biOqHV+Tqt9GBCj/FSFpGD2JbakZmFjdGlvbngdY29tLmFudGhyb3BpYy5jbGF1ZGUucHJvdmlkZWRqcGFyYW1ldGVyc6F4H2NvbS5hbnRocm9waWMub3JpZ2luLWNvbmZpZGVuY2VndW5rbm93bmtkZXNjcmlwdGlvbnhmQ2xhdWRlIHByb3ZpZGVkIHRoaXMgZmlsZSBhdCB0aGUgcmVxdWVzdCBvZiBhIHVzZXIgYW5kIG1heSBoYXZlIGNyZWF0ZWQgb3IgbW9kaWZpZWQgdGhlIGZpbGUgY29udGVudHMubXNvZnR3YXJlQWdlbnShZG5hbWVmQ2xhdWRlcmFsbEFjdGlvbnNJbmNsdWRlZPUAAADIanVtYgAAAEBqdW1kY2JvcgARABCAAACqADibcRNjMnBhLmhhc2guZGF0YQAAAAAYYzJzaK+6j8FG9UuM8Bd2fRSLLbQAAACAY2JvcqVjYWxnZnNoYTI1NmNwYWRNAAAAAAAAAAAAAAAAAGRoYXNoWCAhuwUJVLOPzcGJLbfAhyvTbVLojRLrsYxsfsUHMlBspWRuYW1lbmp1bWJmIG1hbmlmZXN0amV4Y2x1c2lvbnOBomVzdGFydBjQZmxlbmd0aBkeBAAAAj5qdW1iAAAAJ2p1bWRjMmNsABEAEIAAAKoAOJtxA2MycGEuY2xhaW0udjIAAAACD2Nib3KlY2FsZ2ZzaGEyNTZpc2lnbmF0dXJleE1zZWxmI2p1bWJmPS9jMnBhL3VybjpjMnBhOmNmZTkwYzg0LWY2MWUtNDk3YS1hZTQ0LWUwNGU1Y2NjYzJmNy9jMnBhLnNpZ25hdHVyZWppbnN0YW5jZUlEeCx4bXA6aWlkOjY4MzcwZmIyLWFmOTQtNDFiMi1iOTIyLTZmMmNjMDdkYTRlNHJjcmVhdGVkX2Fzc2VydGlvbnODomN1cmx4LXNlbGYjanVtYmY9YzJwYS5hc3NlcnRpb25zL2MycGEuaW5ncmVkaWVudC52M2RoYXNoWCANaWx1XFIKGxW6JpnRuI6odX5Oq30YEKP8VIWkYPYltqJjdXJseCpzZWxmI2p1bWJmPWMycGEuYXNzZXJ0aW9ucy9jMnBhLmFjdGlvbnMudjJkaGFzaFggl7+BbMyIDg2/+FaDQcg86QImxTBtx+nru29FNqcRUgqiY3VybHgpc2VsZiNqdW1iZj1jMnBhLmFzc2VydGlvbnMvYzJwYS5oYXNoLmRhdGFkaGFzaFggzXndyKxy8Qg+nVYJz3ON/P+7ejzh8EY4/o4GMHuQSmV0Y2xhaW1fZ2VuZXJhdG9yX2luZm+jZG5hbWVvQW50aHJvcGljIEZpbGVzZ3ZlcnNpb25lMS4wLjBrc3BlY1ZlcnNpb25lMi40LjAAABA4anVtYgAAAChqdW1kYzJjcwARABCAAACqADibcQNjMnBhLnNpZ25hdHVyZQAAABAIY2JvctKEWQISogEmGCFZAgowggIGMIIBjaADAgECAhRA5aAK7sI50L64g/oGQgU9Z1UTADAKBggqhkjOPQQDAzBJMRcwFQYDVQQKEw5BbnRocm9waWMsIFBCQzEuMCwGA1UEAxMlQW50aHJvcGljIENvbnRlbnQgQ3JlZGVudGlhbHMgUm9vdCBDQTAeFw0yNjA4MDcxODQzNTZaFw0yODA4MDYxOTQzNTZaMEQxFzAVBgNVBAoTDkFudGhyb3BpYywgUEJDMSkwJwYDVQQDEyBBbnRocm9waWMgQ2xhdWRlIENvbnRlbnQgU2lnbmluZzBZMBMGByqGSM49AgEGCCqGSM49AwEHA0IABJh6CmvLUBgFFNU0vUKlOVtE6djd17L5SuwX0LemFisBM3dkd/3cyjxFA3Qo5S46fX0/ihY0VZ7mfb9KF703t5OjWDBWMA4GA1UdDwEB/wQEAwIHgDAVBgNVHSUEDjAMBgorBgEEAYPoXgIBMAwGA1UdEwEB/wQCMAAwHwYDVR0jBBgwFoAUzlHiBIFOZFsj+OPEz5o+nMHXXMIwCgYIKoZIzj0EAwMDZwAwZAIwMXMdFJ4BetLLVY7ORuE9noqbbAZOZn/aArXyTwFAZfKrPzxF2vPoJNf1+UCdg1XGAjBwX1zd9WGqYkqmL5SFqw1QySjr1zJfpJM9+1rdDwSPLMOPOjKuiXjoU/pUUeG9RwmhY3BhZFkNngAAAAAAAAAAAAAAAAAAAAAAAAAAAAAAAAAAAAAAAAAAAAAAAAAAAAAAAAAAAAAAAAAAAAAAAAAAAAAAAAAAAAAAAAAAAAAAAAAAAAAAAAAAAAAAAAAAAAAAAAAAAAAAAAAAAAAAAAAAAAAAAAAAAAAAAAAAAAAAAAAAAAAAAAAAAAAAAAAAAAAAAAAAAAAAAAAAAAAAAAAAAAAAAAAAAAAAAAAAAAAAAAAAAAAAAAAAAAAAAAAAAAAAAAAAAAAAAAAAAAAAAAAAAAAAAAAAAAAAAAAAAAAAAAAAAAAAAAAAAAAAAAAAAAAAAAAAAAAAAAAAAAAAAAAAAAAAAAAAAAAAAAAAAAAAAAAAAAAAAAAAAAAAAAAAAAAAAAAAAAAAAAAAAAAAAAAAAAAAAAAAAAAAAAAAAAAAAAAAAAAAAAAAAAAAAAAAAAAAAAAAAAAAAAAAAAAAAAAAAAAAAAAAAAAAAAAAAAAAAAAAAAAAAAAAAAAAAAAAAAAAAAAAAAAAAAAAAAAAAAAAAAAAAAAAAAAAAAAAAAAAAAAAAAAAAAAAAAAAAAAAAAAAAAAAAAAAAAAAAAAAAAAAAAAAAAAAAAAAAAAAAAAAAAAAAAAAAAAAAAAAAAAAAAAAAAAAAAAAAAAAAAAAAAAAAAAAAAAAAAAAAAAAAAAAAAAAAAAAAAAAAAAAAAAAAAAAAAAAAAAAAAAAAAAAAAAAAAAAAAAAAAAAAAAAAAAAAAAAAAAAAAAAAAAAAAAAAAAAAAAAAAAAAAAAAAAAAAAAAAAAAAAAAAAAAAAAAAAAAAAAAAAAAAAAAAAAAAAAAAAAAAAAAAAAAAAAAAAAAAAAAAAAAAAAAAAAAAAAAAAAAAAAAAAAAAAAAAAAAAAAAAAAAAAAAAAAAAAAAAAAAAAAAAAAAAAAAAAAAAAAAAAAAAAAAAAAAAAAAAAAAAAAAAAAAAAAAAAAAAAAAAAAAAAAAAAAAAAAAAAAAAAAAAAAAAAAAAAAAAAAAAAAAAAAAAAAAAAAAAAAAAAAAAAAAAAAAAAAAAAAAAAAAAAAAAAAAAAAAAAAAAAAAAAAAAAAAAAAAAAAAAAAAAAAAAAAAAAAAAAAAAAAAAAAAAAAAAAAAAAAAAAAAAAAAAAAAAAAAAAAAAAAAAAAAAAAAAAAAAAAAAAAAAAAAAAAAAAAAAAAAAAAAAAAAAAAAAAAAAAAAAAAAAAAAAAAAAAAAAAAAAAAAAAAAAAAAAAAAAAAAAAAAAAAAAAAAAAAAAAAAAAAAAAAAAAAAAAAAAAAAAAAAAAAAAAAAAAAAAAAAAAAAAAAAAAAAAAAAAAAAAAAAAAAAAAAAAAAAAAAAAAAAAAAAAAAAAAAAAAAAAAAAAAAAAAAAAAAAAAAAAAAAAAAAAAAAAAAAAAAAAAAAAAAAAAAAAAAAAAAAAAAAAAAAAAAAAAAAAAAAAAAAAAAAAAAAAAAAAAAAAAAAAAAAAAAAAAAAAAAAAAAAAAAAAAAAAAAAAAAAAAAAAAAAAAAAAAAAAAAAAAAAAAAAAAAAAAAAAAAAAAAAAAAAAAAAAAAAAAAAAAAAAAAAAAAAAAAAAAAAAAAAAAAAAAAAAAAAAAAAAAAAAAAAAAAAAAAAAAAAAAAAAAAAAAAAAAAAAAAAAAAAAAAAAAAAAAAAAAAAAAAAAAAAAAAAAAAAAAAAAAAAAAAAAAAAAAAAAAAAAAAAAAAAAAAAAAAAAAAAAAAAAAAAAAAAAAAAAAAAAAAAAAAAAAAAAAAAAAAAAAAAAAAAAAAAAAAAAAAAAAAAAAAAAAAAAAAAAAAAAAAAAAAAAAAAAAAAAAAAAAAAAAAAAAAAAAAAAAAAAAAAAAAAAAAAAAAAAAAAAAAAAAAAAAAAAAAAAAAAAAAAAAAAAAAAAAAAAAAAAAAAAAAAAAAAAAAAAAAAAAAAAAAAAAAAAAAAAAAAAAAAAAAAAAAAAAAAAAAAAAAAAAAAAAAAAAAAAAAAAAAAAAAAAAAAAAAAAAAAAAAAAAAAAAAAAAAAAAAAAAAAAAAAAAAAAAAAAAAAAAAAAAAAAAAAAAAAAAAAAAAAAAAAAAAAAAAAAAAAAAAAAAAAAAAAAAAAAAAAAAAAAAAAAAAAAAAAAAAAAAAAAAAAAAAAAAAAAAAAAAAAAAAAAAAAAAAAAAAAAAAAAAAAAAAAAAAAAAAAAAAAAAAAAAAAAAAAAAAAAAAAAAAAAAAAAAAAAAAAAAAAAAAAAAAAAAAAAAAAAAAAAAAAAAAAAAAAAAAAAAAAAAAAAAAAAAAAAAAAAAAAAAAAAAAAAAAAAAAAAAAAAAAAAAAAAAAAAAAAAAAAAAAAAAAAAAAAAAAAAAAAAAAAAAAAAAAAAAAAAAAAAAAAAAAAAAAAAAAAAAAAAAAAAAAAAAAAAAAAAAAAAAAAAAAAAAAAAAAAAAAAAAAAAAAAAAAAAAAAAAAAAAAAAAAAAAAAAAAAAAAAAAAAAAAAAAAAAAAAAAAAAAAAAAAAAAAAAAAAAAAAAAAAAAAAAAAAAAAAAAAAAAAAAAAAAAAAAAAAAAAAAAAAAAAAAAAAAAAAAAAAAAAAAAAAAAAAAAAAAAAAAAAAAAAAAAAAAAAAAAAAAAAAAAAAAAAAAAAAAAAAAAAAAAAAAAAAAAAAAAAAAAAAAAAAAAAAAAAAAAAAAAAAAAAAAAAAAAAAAAAAAAAAAAAAAAAAAAAAAAAAAAAAAAAAAAAAAAAAAAAAAAAAAAAAAAAAAAAAAAAAAAAAAAAAAAAAAAAAAAAAAAAAAAAAAAAAAAAAAAAAAAAAAAAAAAAAAAAAAAAAAAAAAAAAAAAAAAAAAAAAAAAAAAAAAAAAAAAAAAAAAAAAAAAAAAAAAAAAAAAAAAAAAAAAAAAAAAAAAAAAAAAAAAAAAAAAAAAAAAAAAAAAAAAAAAAAAAAAAAAAAAAAAAAAAAAAAAAAAAAAAAAAAAAAAAAAAAAAAAAAAAAAAAAAAAAAAAAAAAAAAAAAAAAAAAAAAAAAAAAAAAAAAAAAAAAAAAAAAAAAAAAAAAAAAAAAAAAAAAAAAAAAAAAAAAAAAAAAAAAAAAAAAAAAAAAAAAAAAAAAAAAAAAAAAAAAAAAAAAAAAAAAAAAAAAAAAAAAAAAAAAAAAAAAAAAAAAAAAAAAAAAAAAAAAAAAAAAAAAAAAAAAAAAAAAAAAAAAAAAAAAAAAAAAAAAAAAAAAAAAAAAAAAAAAAAAAAAAAAAAAAAAAAAAAAAAAAAAAAAAAAAAAAAAAAAAAAAAAAAAAAAAAAAAAAAAAAAAAAAAAAAAAAAAAAAAAAAAAAAAAAAAAAAAAAAAAAAAAAAAAAAAAAAAAAAAAAAAAAAAAAAAAAAAAAAAAAAAAAAAAAAAAAAAAAAAAAAAAAAAAAAAAAAAAAAAAAAAAAAAAAAAAAAAAAAAAAAAAAAAAAAAAAAAAAAAAAAAAAAAAAAAAAAAAAAAAAAAAAAAAAAAAAAAAAAAAAAAAAAAAAAAAAAAAAAAAAAAAAAAAAAAAAAAAAAAAAAAAAAAAAAAAAAAAAAAAAAAAAAAAAAAAAAAAAAAAAAAAAAAAAAAAAAAAAAAAAAAAAAAAAAAAAAAAAAAAAAAAAAAAAAAAAAAAAAAAAAAAAAAAAAAAAAAAAAAAAAAAAAAAAAAAAAAAAAAAAAAAAAAAAAAAAAAAAAAAAAAAAAAAAAAAAAAAAAAAAAAAAAAAAAAAAAAAAAAAAAAAAAAAAAAAAAAAAAAAAAAAAAAAAAAAAAAAAAAAAAAAAAAAAAAAAAAAAAAAAAAAAAAAAAAAAAAAAAAAAAAAAAAAAAAAAAAAAAAAAAAAAAAAAAAAAAAAAAAAAAAAAAAAAAAAAAAAAAAAAAAAAAAAAAAAAAAAAAAAAAAAAAAAAAAAAAAAAAAAAAAAAAAAAAAAAAAAAAAAAAAAAAAAAAAAAAAAAAAAAAAAAAAAAAAAAAAAAAAAAAAAAAAAAAAAAAAAAAAAAAAAAAAAAAAAAAAAAAAAAAAAAAAAAAAAAAAAAAAAAAAAAAAAAAAAAAAAAAAAAAAAAAAAAAAAAAAAAAAAAAAAAAAAAAAAAAAAAAAAAAAAAAAAAAAAAAAAAAAAAAAAAAAAAAAAAAAAAAAAAAAAAAAAAAAAAAAAAAAAAAAAAAAAAAAAAAAAAAAAAAAAAAAAAAAAAAAAAAAAAAAAAAAAAAAAAAAAAAAAAAAAAAAAAAAAAAAAAAAAAAAAAAAAAAAAAAAAAAAAAAAAAAAAAAAAAAAAAAAAAAAAAAAAAAAAAAAAAAAAAAAAAAAAAAAAAAAAAAAAAAAAAAAAAAAAAAAAAAAAAAAAAAAAAAAAAAAAAAAAAAAAAAAAAAAAAAAAAAAAAAAAAAAAAAAAAAAAAAAAAAAAAAAAAAAAAAAAAAAAAAAAAAAAAAAAAAAAAAAAAAAAAAAAAAAAAAAAAAAAAAAAAAAAAAAAAAAAAAAAAAAAAAAAAAAAAAAAAAAAAAAAAAAAAAAAAAAAAAAAAAAAAAAAAAAAAAAAAAAAAAAAAAAAAAAAAAAAAAAAAAAAAAAAAAAAAAAAAAAAAAAAAAAAAAAAAAAAAAAAAAAAAAAAAAAAAAAAAAAAAAAAAAAAAAAAAAAAAAAAAAAAAAAAAAAAAAAAAAAAAAAAAAAPZYQInNVsb+BBEeyBJs/DFoCz+fw9NkdiD4DcFqvC2hwmb9RwOYCIt1TBRuvRCMmW2jmi9IwvKTuXo/qrFHXuTPoVo=</c2pa:manifest></metadata>
  <defs>
    <pattern id="dots" width="24" height="24" patternUnits="userSpaceOnUse">
      <circle cx="2" cy="2" r="1" fill="#2a2a2a"/>
    </pattern>
    <radialGradient id="glow" cx="0.75" cy="0.45" r="0.5">
      <stop offset="0" stop-color="#ffffff" stop-opacity="0.14"/>
      <stop offset="1" stop-color="#ffffff" stop-opacity="0"/>
    </radialGradient>
    <clipPath id="c1"><rect class="r1" x="60" y="110" width="0" height="50"/></clipPath>
    <clipPath id="c2"><rect class="r2" x="60" y="165" width="0" height="80"/></clipPath>
    <clipPath id="c3"><rect class="r3" x="60" y="262" width="0" height="40"/></clipPath>
    <style>
      text { font-family:'JetBrains Mono','Fira Code',Consolas,'Courier New',monospace; }
      .dim { fill:#8a8a8a; font-size:26px; }
      .big { fill:#ffffff; font-size:64px; font-weight:700; letter-spacing:-1px; }
      .mid { fill:#d9d9d9; font-size:28px; }
      .r1 { animation: type1 1s steps(8) .3s forwards; }
      .r2 { animation: type2 1.6s steps(13) 1.4s forwards; }
      .r3 { animation: type3 1.6s steps(19) 3.2s forwards; }
      @keyframes type1 { to { width:200px; } }
      @keyframes type2 { to { width:560px; } }
      @keyframes type3 { to { width:560px; } }
      .cur { fill:#fff; animation: blink 1s steps(1) infinite; }
      @keyframes blink { 50% { opacity:0; } }
      .float { animation: float 6s ease-in-out infinite alternate; }
      @keyframes float { from { transform:translateY(-6px); } to { transform:translateY(6px); } }
      @media (prefers-reduced-motion: reduce) {
        .r1 { animation:none; width:200px; } .r2,.r3 { animation:none; width:560px; }
        .cur,.float { animation:none; }
      }
    </style>
  </defs>

  <rect width="1200" height="400" fill="#000"/>
  <rect width="1200" height="400" fill="url(#dots)"/>
  <rect width="1200" height="400" fill="url(#glow)"/>
  <rect x="1.5" y="1.5" width="1197" height="397" fill="none" stroke="#fff" stroke-opacity="0.35" stroke-width="1.5"/>

  <!-- window dots -->
  <circle cx="36" cy="34" r="6" fill="#fff"/>
  <circle cx="58" cy="34" r="6" fill="#777"/>
  <circle cx="80" cy="34" r="6" fill="#333"/>

  <!-- terminal text -->
  <text class="dim" x="60" y="140">$ whoami</text>
  <g clip-path="url(#c2)"><text class="big" x="60" y="228">Laxus Dreyar</text></g>
  <g clip-path="url(#c3)"><text class="mid" x="60" y="292">&gt; just a small dev.</text></g>
  <rect class="cur" x="60" y="312" width="16" height="4"/>

  <!-- isometric terrain -->
  <g class="float">
<polygon points="874,165 900,180 900,206 874,191" fill="#6e6e6e" stroke="#000" stroke-width="1.2"/><polygon points="900,180 926,165 926,191 900,206" fill="#2b2b2b" stroke="#000" stroke-width="1.2"/><polygon points="900,150 926,165 900,180 874,165" fill="#f2f2f2" stroke="#000" stroke-width="1.2"/>
<polygon points="848,180 874,195 874,221 848,206" fill="#6e6e6e" stroke="#000" stroke-width="1.2"/><polygon points="874,195 900,180 900,206 874,221" fill="#2b2b2b" stroke="#000" stroke-width="1.2"/><polygon points="874,165 900,180 874,195 848,180" fill="#bdbdbd" stroke="#000" stroke-width="1.2"/>
<polygon points="848,154 874,169 874,195 848,180" fill="#6e6e6e" stroke="#000" stroke-width="1.2"/><polygon points="874,169 900,154 900,180 874,195" fill="#2b2b2b" stroke="#000" stroke-width="1.2"/><polygon points="874,139 900,154 874,169 848,154" fill="#f2f2f2" stroke="#000" stroke-width="1.2"/>
<polygon points="900,180 926,195 926,221 900,206" fill="#6e6e6e" stroke="#000" stroke-width="1.2"/><polygon points="926,195 952,180 952,206 926,221" fill="#2b2b2b" stroke="#000" stroke-width="1.2"/><polygon points="926,165 952,180 926,195 900,180" fill="#f2f2f2" stroke="#000" stroke-width="1.2"/>
<polygon points="822,195 848,210 848,236 822,221" fill="#6e6e6e" stroke="#000" stroke-width="1.2"/><polygon points="848,210 874,195 874,221 848,236" fill="#2b2b2b" stroke="#000" stroke-width="1.2"/><polygon points="848,180 874,195 848,210 822,195" fill="#bdbdbd" stroke="#000" stroke-width="1.2"/>
<polygon points="822,169 848,184 848,210 822,195" fill="#6e6e6e" stroke="#000" stroke-width="1.2"/><polygon points="848,184 874,169 874,195 848,210" fill="#2b2b2b" stroke="#000" stroke-width="1.2"/><polygon points="848,154 874,169 848,184 822,169" fill="#bdbdbd" stroke="#000" stroke-width="1.2"/>
<polygon points="822,143 848,158 848,184 822,169" fill="#6e6e6e" stroke="#000" stroke-width="1.2"/><polygon points="848,158 874,143 874,169 848,184" fill="#2b2b2b" stroke="#000" stroke-width="1.2"/><polygon points="848,128 874,143 848,158 822,143" fill="#f2f2f2" stroke="#000" stroke-width="1.2"/>
<polygon points="874,195 900,210 900,236 874,221" fill="#6e6e6e" stroke="#000" stroke-width="1.2"/><polygon points="900,210 926,195 926,221 900,236" fill="#2b2b2b" stroke="#000" stroke-width="1.2"/><polygon points="900,180 926,195 900,210 874,195" fill="#bdbdbd" stroke="#000" stroke-width="1.2"/>
<polygon points="874,169 900,184 900,210 874,195" fill="#6e6e6e" stroke="#000" stroke-width="1.2"/><polygon points="900,184 926,169 926,195 900,210" fill="#2b2b2b" stroke="#000" stroke-width="1.2"/><polygon points="900,154 926,169 900,184 874,169" fill="#f2f2f2" stroke="#000" stroke-width="1.2"/>
<polygon points="926,195 952,210 952,236 926,221" fill="#6e6e6e" stroke="#000" stroke-width="1.2"/><polygon points="952,210 978,195 978,221 952,236" fill="#2b2b2b" stroke="#000" stroke-width="1.2"/><polygon points="952,180 978,195 952,210 926,195" fill="#bdbdbd" stroke="#000" stroke-width="1.2"/>
<polygon points="926,169 952,184 952,210 926,195" fill="#6e6e6e" stroke="#000" stroke-width="1.2"/><polygon points="952,184 978,169 978,195 952,210" fill="#2b2b2b" stroke="#000" stroke-width="1.2"/><polygon points="952,154 978,169 952,184 926,169" fill="#f2f2f2" stroke="#000" stroke-width="1.2"/>
<polygon points="796,210 822,225 822,251 796,236" fill="#6e6e6e" stroke="#000" stroke-width="1.2"/><polygon points="822,225 848,210 848,236 822,251" fill="#2b2b2b" stroke="#000" stroke-width="1.2"/><polygon points="822,195 848,210 822,225 796,210" fill="#bdbdbd" stroke="#000" stroke-width="1.2"/>
<polygon points="796,184 822,199 822,225 796,210" fill="#6e6e6e" stroke="#000" stroke-width="1.2"/><polygon points="822,199 848,184 848,210 822,225" fill="#2b2b2b" stroke="#000" stroke-width="1.2"/><polygon points="822,169 848,184 822,199 796,184" fill="#f2f2f2" stroke="#000" stroke-width="1.2"/>
<polygon points="848,210 874,225 874,251 848,236" fill="#6e6e6e" stroke="#000" stroke-width="1.2"/><polygon points="874,225 900,210 900,236 874,251" fill="#2b2b2b" stroke="#000" stroke-width="1.2"/><polygon points="874,195 900,210 874,225 848,210" fill="#bdbdbd" stroke="#000" stroke-width="1.2"/>
<polygon points="848,184 874,199 874,225 848,210" fill="#6e6e6e" stroke="#000" stroke-width="1.2"/><polygon points="874,199 900,184 900,210 874,225" fill="#2b2b2b" stroke="#000" stroke-width="1.2"/><polygon points="874,169 900,184 874,199 848,184" fill="#f2f2f2" stroke="#000" stroke-width="1.2"/>
<polygon points="900,210 926,225 926,251 900,236" fill="#6e6e6e" stroke="#000" stroke-width="1.2"/><polygon points="926,225 952,210 952,236 926,251" fill="#2b2b2b" stroke="#000" stroke-width="1.2"/><polygon points="926,195 952,210 926,225 900,210" fill="#bdbdbd" stroke="#000" stroke-width="1.2"/>
<polygon points="900,184 926,199 926,225 900,210" fill="#6e6e6e" stroke="#000" stroke-width="1.2"/><polygon points="926,199 952,184 952,210 926,225" fill="#2b2b2b" stroke="#000" stroke-width="1.2"/><polygon points="926,169 952,184 926,199 900,184" fill="#f2f2f2" stroke="#000" stroke-width="1.2"/>
<polygon points="952,210 978,225 978,251 952,236" fill="#6e6e6e" stroke="#000" stroke-width="1.2"/><polygon points="978,225 1004,210 1004,236 978,251" fill="#2b2b2b" stroke="#000" stroke-width="1.2"/><polygon points="978,195 1004,210 978,225 952,210" fill="#bdbdbd" stroke="#000" stroke-width="1.2"/>
<polygon points="952,184 978,199 978,225 952,210" fill="#6e6e6e" stroke="#000" stroke-width="1.2"/><polygon points="978,199 1004,184 1004,210 978,225" fill="#2b2b2b" stroke="#000" stroke-width="1.2"/><polygon points="978,169 1004,184 978,199 952,184" fill="#bdbdbd" stroke="#000" stroke-width="1.2"/>
<polygon points="952,158 978,173 978,199 952,184" fill="#6e6e6e" stroke="#000" stroke-width="1.2"/><polygon points="978,173 1004,158 1004,184 978,199" fill="#2b2b2b" stroke="#000" stroke-width="1.2"/><polygon points="978,143 1004,158 978,173 952,158" fill="#bdbdbd" stroke="#000" stroke-width="1.2"/>
<polygon points="952,132 978,147 978,173 952,158" fill="#6e6e6e" stroke="#000" stroke-width="1.2"/><polygon points="978,147 1004,132 1004,158 978,173" fill="#2b2b2b" stroke="#000" stroke-width="1.2"/><polygon points="978,117 1004,132 978,147 952,132" fill="#f2f2f2" stroke="#000" stroke-width="1.2"/>
<polygon points="770,225 796,240 796,266 770,251" fill="#6e6e6e" stroke="#000" stroke-width="1.2"/><polygon points="796,240 822,225 822,251 796,266" fill="#2b2b2b" stroke="#000" stroke-width="1.2"/><polygon points="796,210 822,225 796,240 770,225" fill="#f2f2f2" stroke="#000" stroke-width="1.2"/>
<polygon points="822,225 848,240 848,266 822,251" fill="#6e6e6e" stroke="#000" stroke-width="1.2"/><polygon points="848,240 874,225 874,251 848,266" fill="#2b2b2b" stroke="#000" stroke-width="1.2"/><polygon points="848,210 874,225 848,240 822,225" fill="#bdbdbd" stroke="#000" stroke-width="1.2"/>
<polygon points="822,199 848,214 848,240 822,225" fill="#6e6e6e" stroke="#000" stroke-width="1.2"/><polygon points="848,214 874,199 874,225 848,240" fill="#2b2b2b" stroke="#000" stroke-width="1.2"/><polygon points="848,184 874,199 848,214 822,199" fill="#f2f2f2" stroke="#000" stroke-width="1.2"/>
<polygon points="874,225 900,240 900,266 874,251" fill="#6e6e6e" stroke="#000" stroke-width="1.2"/><polygon points="900,240 926,225 926,251 900,266" fill="#2b2b2b" stroke="#000" stroke-width="1.2"/><polygon points="900,210 926,225 900,240 874,225" fill="#bdbdbd" stroke="#000" stroke-width="1.2"/>
<polygon points="874,199 900,214 900,240 874,225" fill="#6e6e6e" stroke="#000" stroke-width="1.2"/><polygon points="900,214 926,199 926,225 900,240" fill="#2b2b2b" stroke="#000" stroke-width="1.2"/><polygon points="900,184 926,199 900,214 874,199" fill="#bdbdbd" stroke="#000" stroke-width="1.2"/>
<polygon points="874,173 900,188 900,214 874,199" fill="#6e6e6e" stroke="#000" stroke-width="1.2"/><polygon points="900,188 926,173 926,199 900,214" fill="#2b2b2b" stroke="#000" stroke-width="1.2"/><polygon points="900,158 926,173 900,188 874,173" fill="#bdbdbd" stroke="#000" stroke-width="1.2"/>
<polygon points="874,147 900,162 900,188 874,173" fill="#6e6e6e" stroke="#000" stroke-width="1.2"/><polygon points="900,162 926,147 926,173 900,188" fill="#2b2b2b" stroke="#000" stroke-width="1.2"/><polygon points="900,132 926,147 900,162 874,147" fill="#f2f2f2" stroke="#000" stroke-width="1.2"/>
<polygon points="926,225 952,240 952,266 926,251" fill="#6e6e6e" stroke="#000" stroke-width="1.2"/><polygon points="952,240 978,225 978,251 952,266" fill="#2b2b2b" stroke="#000" stroke-width="1.2"/><polygon points="952,210 978,225 952,240 926,225" fill="#bdbdbd" stroke="#000" stroke-width="1.2"/>
<polygon points="926,199 952,214 952,240 926,225" fill="#6e6e6e" stroke="#000" stroke-width="1.2"/><polygon points="952,214 978,199 978,225 952,240" fill="#2b2b2b" stroke="#000" stroke-width="1.2"/><polygon points="952,184 978,199 952,214 926,199" fill="#f2f2f2" stroke="#000" stroke-width="1.2"/>
<polygon points="978,225 1004,240 1004,266 978,251" fill="#6e6e6e" stroke="#000" stroke-width="1.2"/><polygon points="1004,240 1030,225 1030,251 1004,266" fill="#2b2b2b" stroke="#000" stroke-width="1.2"/><polygon points="1004,210 1030,225 1004,240 978,225" fill="#bdbdbd" stroke="#000" stroke-width="1.2"/>
<polygon points="978,199 1004,214 1004,240 978,225" fill="#6e6e6e" stroke="#000" stroke-width="1.2"/><polygon points="1004,214 1030,199 1030,225 1004,240" fill="#2b2b2b" stroke="#000" stroke-width="1.2"/><polygon points="1004,184 1030,199 1004,214 978,199" fill="#f2f2f2" stroke="#000" stroke-width="1.2"/>
<polygon points="744,240 770,255 770,281 744,266" fill="#6e6e6e" stroke="#000" stroke-width="1.2"/><polygon points="770,255 796,240 796,266 770,281" fill="#2b2b2b" stroke="#000" stroke-width="1.2"/><polygon points="770,225 796,240 770,255 744,240" fill="#f2f2f2" stroke="#000" stroke-width="1.2"/>
<polygon points="796,240 822,255 822,281 796,266" fill="#6e6e6e" stroke="#000" stroke-width="1.2"/><polygon points="822,255 848,240 848,266 822,281" fill="#2b2b2b" stroke="#000" stroke-width="1.2"/><polygon points="822,225 848,240 822,255 796,240" fill="#bdbdbd" stroke="#000" stroke-width="1.2"/>
<polygon points="796,214 822,229 822,255 796,240" fill="#6e6e6e" stroke="#000" stroke-width="1.2"/><polygon points="822,229 848,214 848,240 822,255" fill="#2b2b2b" stroke="#000" stroke-width="1.2"/><polygon points="822,199 848,214 822,229 796,214" fill="#bdbdbd" stroke="#000" stroke-width="1.2"/>
<polygon points="796,188 822,203 822,229 796,214" fill="#6e6e6e" stroke="#000" stroke-width="1.2"/><polygon points="822,203 848,188 848,214 822,229" fill="#2b2b2b" stroke="#000" stroke-width="1.2"/><polygon points="822,173 848,188 822,203 796,188" fill="#bdbdbd" stroke="#000" stroke-width="1.2"/>
<polygon points="796,162 822,177 822,203 796,188" fill="#6e6e6e" stroke="#000" stroke-width="1.2"/><polygon points="822,177 848,162 848,188 822,203" fill="#2b2b2b" stroke="#000" stroke-width="1.2"/><polygon points="822,147 848,162 822,177 796,162" fill="#f2f2f2" stroke="#000" stroke-width="1.2"/>
<polygon points="848,240 874,255 874,281 848,266" fill="#6e6e6e" stroke="#000" stroke-width="1.2"/><polygon points="874,255 900,240 900,266 874,281" fill="#2b2b2b" stroke="#000" stroke-width="1.2"/><polygon points="874,225 900,240 874,255 848,240" fill="#bdbdbd" stroke="#000" stroke-width="1.2"/>
<polygon points="848,214 874,229 874,255 848,240" fill="#6e6e6e" stroke="#000" stroke-width="1.2"/><polygon points="874,229 900,214 900,240 874,255" fill="#2b2b2b" stroke="#000" stroke-width="1.2"/><polygon points="874,199 900,214 874,229 848,214" fill="#bdbdbd" stroke="#000" stroke-width="1.2"/>
<polygon points="848,188 874,203 874,229 848,214" fill="#6e6e6e" stroke="#000" stroke-width="1.2"/><polygon points="874,203 900,188 900,214 874,229" fill="#2b2b2b" stroke="#000" stroke-width="1.2"/><polygon points="874,173 900,188 874,203 848,188" fill="#f2f2f2" stroke="#000" stroke-width="1.2"/>
<polygon points="900,240 926,255 926,281 900,266" fill="#6e6e6e" stroke="#000" stroke-width="1.2"/><polygon points="926,255 952,240 952,266 926,281" fill="#2b2b2b" stroke="#000" stroke-width="1.2"/><polygon points="926,225 952,240 926,255 900,240" fill="#bdbdbd" stroke="#000" stroke-width="1.2"/>
<polygon points="900,214 926,229 926,255 900,240" fill="#6e6e6e" stroke="#000" stroke-width="1.2"/><polygon points="926,229 952,214 952,240 926,255" fill="#2b2b2b" stroke="#000" stroke-width="1.2"/><polygon points="926,199 952,214 926,229 900,214" fill="#bdbdbd" stroke="#000" stroke-width="1.2"/>
<polygon points="900,188 926,203 926,229 900,214" fill="#6e6e6e" stroke="#000" stroke-width="1.2"/><polygon points="926,203 952,188 952,214 926,229" fill="#2b2b2b" stroke="#000" stroke-width="1.2"/><polygon points="926,173 952,188 926,203 900,188" fill="#bdbdbd" stroke="#000" stroke-width="1.2"/>
<polygon points="900,162 926,177 926,203 900,188" fill="#6e6e6e" stroke="#000" stroke-width="1.2"/><polygon points="926,177 952,162 952,188 926,203" fill="#2b2b2b" stroke="#000" stroke-width="1.2"/><polygon points="926,147 952,162 926,177 900,162" fill="#f2f2f2" stroke="#000" stroke-width="1.2"/>
<polygon points="952,240 978,255 978,281 952,266" fill="#6e6e6e" stroke="#000" stroke-width="1.2"/><polygon points="978,255 1004,240 1004,266 978,281" fill="#2b2b2b" stroke="#000" stroke-width="1.2"/><polygon points="978,225 1004,240 978,255 952,240" fill="#bdbdbd" stroke="#000" stroke-width="1.2"/>
<polygon points="952,214 978,229 978,255 952,240" fill="#6e6e6e" stroke="#000" stroke-width="1.2"/><polygon points="978,229 1004,214 1004,240 978,255" fill="#2b2b2b" stroke="#000" stroke-width="1.2"/><polygon points="978,199 1004,214 978,229 952,214" fill="#f2f2f2" stroke="#000" stroke-width="1.2"/>
<polygon points="1004,240 1030,255 1030,281 1004,266" fill="#6e6e6e" stroke="#000" stroke-width="1.2"/><polygon points="1030,255 1056,240 1056,266 1030,281" fill="#2b2b2b" stroke="#000" stroke-width="1.2"/><polygon points="1030,225 1056,240 1030,255 1004,240" fill="#f2f2f2" stroke="#000" stroke-width="1.2"/>
<polygon points="718,255 744,270 744,296 718,281" fill="#6e6e6e" stroke="#000" stroke-width="1.2"/><polygon points="744,270 770,255 770,281 744,296" fill="#2b2b2b" stroke="#000" stroke-width="1.2"/><polygon points="744,240 770,255 744,270 718,255" fill="#f2f2f2" stroke="#000" stroke-width="1.2"/>
<polygon points="770,255 796,270 796,296 770,281" fill="#6e6e6e" stroke="#000" stroke-width="1.2"/><polygon points="796,270 822,255 822,281 796,296" fill="#2b2b2b" stroke="#000" stroke-width="1.2"/><polygon points="796,240 822,255 796,270 770,255" fill="#bdbdbd" stroke="#000" stroke-width="1.2"/>
<polygon points="770,229 796,244 796,270 770,255" fill="#6e6e6e" stroke="#000" stroke-width="1.2"/><polygon points="796,244 822,229 822,255 796,270" fill="#2b2b2b" stroke="#000" stroke-width="1.2"/><polygon points="796,214 822,229 796,244 770,229" fill="#bdbdbd" stroke="#000" stroke-width="1.2"/>
<polygon points="770,203 796,218 796,244 770,229" fill="#6e6e6e" stroke="#000" stroke-width="1.2"/><polygon points="796,218 822,203 822,229 796,244" fill="#2b2b2b" stroke="#000" stroke-width="1.2"/><polygon points="796,188 822,203 796,218 770,203" fill="#f2f2f2" stroke="#000" stroke-width="1.2"/>
<polygon points="822,255 848,270 848,296 822,281" fill="#6e6e6e" stroke="#000" stroke-width="1.2"/><polygon points="848,270 874,255 874,281 848,296" fill="#2b2b2b" stroke="#000" stroke-width="1.2"/><polygon points="848,240 874,255 848,270 822,255" fill="#bdbdbd" stroke="#000" stroke-width="1.2"/>
<polygon points="822,229 848,244 848,270 822,255" fill="#6e6e6e" stroke="#000" stroke-width="1.2"/><polygon points="848,244 874,229 874,255 848,270" fill="#2b2b2b" stroke="#000" stroke-width="1.2"/><polygon points="848,214 874,229 848,244 822,229" fill="#f2f2f2" stroke="#000" stroke-width="1.2"/>
<polygon points="874,255 900,270 900,296 874,281" fill="#6e6e6e" stroke="#000" stroke-width="1.2"/><polygon points="900,270 926,255 926,281 900,296" fill="#2b2b2b" stroke="#000" stroke-width="1.2"/><polygon points="900,240 926,255 900,270 874,255" fill="#bdbdbd" stroke="#000" stroke-width="1.2"/>
<polygon points="874,229 900,244 900,270 874,255" fill="#6e6e6e" stroke="#000" stroke-width="1.2"/><polygon points="900,244 926,229 926,255 900,270" fill="#2b2b2b" stroke="#000" stroke-width="1.2"/><polygon points="900,214 926,229 900,244 874,229" fill="#bdbdbd" stroke="#000" stroke-width="1.2"/>
<polygon points="874,203 900,218 900,244 874,229" fill="#6e6e6e" stroke="#000" stroke-width="1.2"/><polygon points="900,218 926,203 926,229 900,244" fill="#2b2b2b" stroke="#000" stroke-width="1.2"/><polygon points="900,188 926,203 900,218 874,203" fill="#f2f2f2" stroke="#000" stroke-width="1.2"/>
<polygon points="926,255 952,270 952,296 926,281" fill="#6e6e6e" stroke="#000" stroke-width="1.2"/><polygon points="952,270 978,255 978,281 952,296" fill="#2b2b2b" stroke="#000" stroke-width="1.2"/><polygon points="952,240 978,255 952,270 926,255" fill="#bdbdbd" stroke="#000" stroke-width="1.2"/>
<polygon points="926,229 952,244 952,270 926,255" fill="#6e6e6e" stroke="#000" stroke-width="1.2"/><polygon points="952,244 978,229 978,255 952,270" fill="#2b2b2b" stroke="#000" stroke-width="1.2"/><polygon points="952,214 978,229 952,244 926,229" fill="#bdbdbd" stroke="#000" stroke-width="1.2"/>
<polygon points="926,203 952,218 952,244 926,229" fill="#6e6e6e" stroke="#000" stroke-width="1.2"/><polygon points="952,218 978,203 978,229 952,244" fill="#2b2b2b" stroke="#000" stroke-width="1.2"/><polygon points="952,188 978,203 952,218 926,203" fill="#f2f2f2" stroke="#000" stroke-width="1.2"/>
<polygon points="978,255 1004,270 1004,296 978,281" fill="#6e6e6e" stroke="#000" stroke-width="1.2"/><polygon points="1004,270 1030,255 1030,281 1004,296" fill="#2b2b2b" stroke="#000" stroke-width="1.2"/><polygon points="1004,240 1030,255 1004,270 978,255" fill="#f2f2f2" stroke="#000" stroke-width="1.2"/>
<polygon points="1030,255 1056,270 1056,296 1030,281" fill="#6e6e6e" stroke="#000" stroke-width="1.2"/><polygon points="1056,270 1082,255 1082,281 1056,296" fill="#2b2b2b" stroke="#000" stroke-width="1.2"/><polygon points="1056,240 1082,255 1056,270 1030,255" fill="#bdbdbd" stroke="#000" stroke-width="1.2"/>
<polygon points="1030,229 1056,244 1056,270 1030,255" fill="#6e6e6e" stroke="#000" stroke-width="1.2"/><polygon points="1056,244 1082,229 1082,255 1056,270" fill="#2b2b2b" stroke="#000" stroke-width="1.2"/><polygon points="1056,214 1082,229 1056,244 1030,229" fill="#f2f2f2" stroke="#000" stroke-width="1.2"/>
<polygon points="744,270 770,285 770,311 744,296" fill="#6e6e6e" stroke="#000" stroke-width="1.2"/><polygon points="770,285 796,270 796,296 770,311" fill="#2b2b2b" stroke="#000" stroke-width="1.2"/><polygon points="770,255 796,270 770,285 744,270" fill="#f2f2f2" stroke="#000" stroke-width="1.2"/>
<polygon points="796,270 822,285 822,311 796,296" fill="#6e6e6e" stroke="#000" stroke-width="1.2"/><polygon points="822,285 848,270 848,296 822,311" fill="#2b2b2b" stroke="#000" stroke-width="1.2"/><polygon points="822,255 848,270 822,285 796,270" fill="#bdbdbd" stroke="#000" stroke-width="1.2"/>
<polygon points="796,244 822,259 822,285 796,270" fill="#6e6e6e" stroke="#000" stroke-width="1.2"/><polygon points="822,259 848,244 848,270 822,285" fill="#2b2b2b" stroke="#000" stroke-width="1.2"/><polygon points="822,229 848,244 822,259 796,244" fill="#bdbdbd" stroke="#000" stroke-width="1.2"/>
<polygon points="796,218 822,233 822,259 796,244" fill="#6e6e6e" stroke="#000" stroke-width="1.2"/><polygon points="822,233 848,218 848,244 822,259" fill="#2b2b2b" stroke="#000" stroke-width="1.2"/><polygon points="822,203 848,218 822,233 796,218" fill="#f2f2f2" stroke="#000" stroke-width="1.2"/>
<polygon points="848,270 874,285 874,311 848,296" fill="#6e6e6e" stroke="#000" stroke-width="1.2"/><polygon points="874,285 900,270 900,296 874,311" fill="#2b2b2b" stroke="#000" stroke-width="1.2"/><polygon points="874,255 900,270 874,285 848,270" fill="#bdbdbd" stroke="#000" stroke-width="1.2"/>
<polygon points="848,244 874,259 874,285 848,270" fill="#6e6e6e" stroke="#000" stroke-width="1.2"/><polygon points="874,259 900,244 900,270 874,285" fill="#2b2b2b" stroke="#000" stroke-width="1.2"/><polygon points="874,229 900,244 874,259 848,244" fill="#bdbdbd" stroke="#000" stroke-width="1.2"/>
<polygon points="848,218 874,233 874,259 848,244" fill="#6e6e6e" stroke="#000" stroke-width="1.2"/><polygon points="874,233 900,218 900,244 874,259" fill="#2b2b2b" stroke="#000" stroke-width="1.2"/><polygon points="874,203 900,218 874,233 848,218" fill="#bdbdbd" stroke="#000" stroke-width="1.2"/>
<polygon points="848,192 874,207 874,233 848,218" fill="#6e6e6e" stroke="#000" stroke-width="1.2"/><polygon points="874,207 900,192 900,218 874,233" fill="#2b2b2b" stroke="#000" stroke-width="1.2"/><polygon points="874,177 900,192 874,207 848,192" fill="#f2f2f2" stroke="#000" stroke-width="1.2"/>
<polygon points="900,270 926,285 926,311 900,296" fill="#6e6e6e" stroke="#000" stroke-width="1.2"/><polygon points="926,285 952,270 952,296 926,311" fill="#2b2b2b" stroke="#000" stroke-width="1.2"/><polygon points="926,255 952,270 926,285 900,270" fill="#bdbdbd" stroke="#000" stroke-width="1.2"/>
<polygon points="900,244 926,259 926,285 900,270" fill="#6e6e6e" stroke="#000" stroke-width="1.2"/><polygon points="926,259 952,244 952,270 926,285" fill="#2b2b2b" stroke="#000" stroke-width="1.2"/><polygon points="926,229 952,244 926,259 900,244" fill="#bdbdbd" stroke="#000" stroke-width="1.2"/>
<polygon points="900,218 926,233 926,259 900,244" fill="#6e6e6e" stroke="#000" stroke-width="1.2"/><polygon points="926,233 952,218 952,244 926,259" fill="#2b2b2b" stroke="#000" stroke-width="1.2"/><polygon points="926,203 952,218 926,233 900,218" fill="#bdbdbd" stroke="#000" stroke-width="1.2"/>
<polygon points="900,192 926,207 926,233 900,218" fill="#6e6e6e" stroke="#000" stroke-width="1.2"/><polygon points="926,207 952,192 952,218 926,233" fill="#2b2b2b" stroke="#000" stroke-width="1.2"/><polygon points="926,177 952,192 926,207 900,192" fill="#f2f2f2" stroke="#000" stroke-width="1.2"/>
<polygon points="952,270 978,285 978,311 952,296" fill="#6e6e6e" stroke="#000" stroke-width="1.2"/><polygon points="978,285 1004,270 1004,296 978,311" fill="#2b2b2b" stroke="#000" stroke-width="1.2"/><polygon points="978,255 1004,270 978,285 952,270" fill="#bdbdbd" stroke="#000" stroke-width="1.2"/>
<polygon points="952,244 978,259 978,285 952,270" fill="#6e6e6e" stroke="#000" stroke-width="1.2"/><polygon points="978,259 1004,244 1004,270 978,285" fill="#2b2b2b" stroke="#000" stroke-width="1.2"/><polygon points="978,229 1004,244 978,259 952,244" fill="#f2f2f2" stroke="#000" stroke-width="1.2"/>
<polygon points="1004,270 1030,285 1030,311 1004,296" fill="#6e6e6e" stroke="#000" stroke-width="1.2"/><polygon points="1030,285 1056,270 1056,296 1030,311" fill="#2b2b2b" stroke="#000" stroke-width="1.2"/><polygon points="1030,255 1056,270 1030,285 1004,270" fill="#bdbdbd" stroke="#000" stroke-width="1.2"/>
<polygon points="1004,244 1030,259 1030,285 1004,270" fill="#6e6e6e" stroke="#000" stroke-width="1.2"/><polygon points="1030,259 1056,244 1056,270 1030,285" fill="#2b2b2b" stroke="#000" stroke-width="1.2"/><polygon points="1030,229 1056,244 1030,259 1004,244" fill="#bdbdbd" stroke="#000" stroke-width="1.2"/>
<polygon points="1004,218 1030,233 1030,259 1004,244" fill="#6e6e6e" stroke="#000" stroke-width="1.2"/><polygon points="1030,233 1056,218 1056,244 1030,259" fill="#2b2b2b" stroke="#000" stroke-width="1.2"/><polygon points="1030,203 1056,218 1030,233 1004,218" fill="#f2f2f2" stroke="#000" stroke-width="1.2"/>
<polygon points="770,285 796,300 796,326 770,311" fill="#6e6e6e" stroke="#000" stroke-width="1.2"/><polygon points="796,300 822,285 822,311 796,326" fill="#2b2b2b" stroke="#000" stroke-width="1.2"/><polygon points="796,270 822,285 796,300 770,285" fill="#f2f2f2" stroke="#000" stroke-width="1.2"/>
<polygon points="822,285 848,300 848,326 822,311" fill="#6e6e6e" stroke="#000" stroke-width="1.2"/><polygon points="848,300 874,285 874,311 848,326" fill="#2b2b2b" stroke="#000" stroke-width="1.2"/><polygon points="848,270 874,285 848,300 822,285" fill="#bdbdbd" stroke="#000" stroke-width="1.2"/>
<polygon points="822,259 848,274 848,300 822,285" fill="#6e6e6e" stroke="#000" stroke-width="1.2"/><polygon points="848,274 874,259 874,285 848,300" fill="#2b2b2b" stroke="#000" stroke-width="1.2"/><polygon points="848,244 874,259 848,274 822,259" fill="#bdbdbd" stroke="#000" stroke-width="1.2"/>
<polygon points="822,233 848,248 848,274 822,259" fill="#6e6e6e" stroke="#000" stroke-width="1.2"/><polygon points="848,248 874,233 874,259 848,274" fill="#2b2b2b" stroke="#000" stroke-width="1.2"/><polygon points="848,218 874,233 848,248 822,233" fill="#f2f2f2" stroke="#000" stroke-width="1.2"/>
<polygon points="874,285 900,300 900,326 874,311" fill="#6e6e6e" stroke="#000" stroke-width="1.2"/><polygon points="900,300 926,285 926,311 900,326" fill="#2b2b2b" stroke="#000" stroke-width="1.2"/><polygon points="900,270 926,285 900,300 874,285" fill="#bdbdbd" stroke="#000" stroke-width="1.2"/>
<polygon points="874,259 900,274 900,300 874,285" fill="#6e6e6e" stroke="#000" stroke-width="1.2"/><polygon points="900,274 926,259 926,285 900,300" fill="#2b2b2b" stroke="#000" stroke-width="1.2"/><polygon points="900,244 926,259 900,274 874,259" fill="#f2f2f2" stroke="#000" stroke-width="1.2"/>
<polygon points="926,285 952,300 952,326 926,311" fill="#6e6e6e" stroke="#000" stroke-width="1.2"/><polygon points="952,300 978,285 978,311 952,326" fill="#2b2b2b" stroke="#000" stroke-width="1.2"/><polygon points="952,270 978,285 952,300 926,285" fill="#bdbdbd" stroke="#000" stroke-width="1.2"/>
<polygon points="926,259 952,274 952,300 926,285" fill="#6e6e6e" stroke="#000" stroke-width="1.2"/><polygon points="952,274 978,259 978,285 952,300" fill="#2b2b2b" stroke="#000" stroke-width="1.2"/><polygon points="952,244 978,259 952,274 926,259" fill="#bdbdbd" stroke="#000" stroke-width="1.2"/>
<polygon points="926,233 952,248 952,274 926,259" fill="#6e6e6e" stroke="#000" stroke-width="1.2"/><polygon points="952,248 978,233 978,259 952,274" fill="#2b2b2b" stroke="#000" stroke-width="1.2"/><polygon points="952,218 978,233 952,248 926,233" fill="#f2f2f2" stroke="#000" stroke-width="1.2"/>
<polygon points="978,285 1004,300 1004,326 978,311" fill="#6e6e6e" stroke="#000" stroke-width="1.2"/><polygon points="1004,300 1030,285 1030,311 1004,326" fill="#2b2b2b" stroke="#000" stroke-width="1.2"/><polygon points="1004,270 1030,285 1004,300 978,285" fill="#bdbdbd" stroke="#000" stroke-width="1.2"/>
<polygon points="978,259 1004,274 1004,300 978,285" fill="#6e6e6e" stroke="#000" stroke-width="1.2"/><polygon points="1004,274 1030,259 1030,285 1004,300" fill="#2b2b2b" stroke="#000" stroke-width="1.2"/><polygon points="1004,244 1030,259 1004,274 978,259" fill="#f2f2f2" stroke="#000" stroke-width="1.2"/>
<polygon points="796,300 822,315 822,341 796,326" fill="#6e6e6e" stroke="#000" stroke-width="1.2"/><polygon points="822,315 848,300 848,326 822,341" fill="#2b2b2b" stroke="#000" stroke-width="1.2"/><polygon points="822,285 848,300 822,315 796,300" fill="#bdbdbd" stroke="#000" stroke-width="1.2"/>
<polygon points="796,274 822,289 822,315 796,300" fill="#6e6e6e" stroke="#000" stroke-width="1.2"/><polygon points="822,289 848,274 848,300 822,315" fill="#2b2b2b" stroke="#000" stroke-width="1.2"/><polygon points="822,259 848,274 822,289 796,274" fill="#bdbdbd" stroke="#000" stroke-width="1.2"/>
<polygon points="796,248 822,263 822,289 796,274" fill="#6e6e6e" stroke="#000" stroke-width="1.2"/><polygon points="822,263 848,248 848,274 822,289" fill="#2b2b2b" stroke="#000" stroke-width="1.2"/><polygon points="822,233 848,248 822,263 796,248" fill="#bdbdbd" stroke="#000" stroke-width="1.2"/>
<polygon points="796,222 822,237 822,263 796,248" fill="#6e6e6e" stroke="#000" stroke-width="1.2"/><polygon points="822,237 848,222 848,248 822,263" fill="#2b2b2b" stroke="#000" stroke-width="1.2"/><polygon points="822,207 848,222 822,237 796,222" fill="#f2f2f2" stroke="#000" stroke-width="1.2"/>
<polygon points="848,300 874,315 874,341 848,326" fill="#6e6e6e" stroke="#000" stroke-width="1.2"/><polygon points="874,315 900,300 900,326 874,341" fill="#2b2b2b" stroke="#000" stroke-width="1.2"/><polygon points="874,285 900,300 874,315 848,300" fill="#bdbdbd" stroke="#000" stroke-width="1.2"/>
<polygon points="848,274 874,289 874,315 848,300" fill="#6e6e6e" stroke="#000" stroke-width="1.2"/><polygon points="874,289 900,274 900,300 874,315" fill="#2b2b2b" stroke="#000" stroke-width="1.2"/><polygon points="874,259 900,274 874,289 848,274" fill="#bdbdbd" stroke="#000" stroke-width="1.2"/>
<polygon points="848,248 874,263 874,289 848,274" fill="#6e6e6e" stroke="#000" stroke-width="1.2"/><polygon points="874,263 900,248 900,274 874,289" fill="#2b2b2b" stroke="#000" stroke-width="1.2"/><polygon points="874,233 900,248 874,263 848,248" fill="#f2f2f2" stroke="#000" stroke-width="1.2"/>
<polygon points="900,300 926,315 926,341 900,326" fill="#6e6e6e" stroke="#000" stroke-width="1.2"/><polygon points="926,315 952,300 952,326 926,341" fill="#2b2b2b" stroke="#000" stroke-width="1.2"/><polygon points="926,285 952,300 926,315 900,300" fill="#bdbdbd" stroke="#000" stroke-width="1.2"/>
<polygon points="900,274 926,289 926,315 900,300" fill="#6e6e6e" stroke="#000" stroke-width="1.2"/><polygon points="926,289 952,274 952,300 926,315" fill="#2b2b2b" stroke="#000" stroke-width="1.2"/><polygon points="926,259 952,274 926,289 900,274" fill="#bdbdbd" stroke="#000" stroke-width="1.2"/>
<polygon points="900,248 926,263 926,289 900,274" fill="#6e6e6e" stroke="#000" stroke-width="1.2"/><polygon points="926,263 952,248 952,274 926,289" fill="#2b2b2b" stroke="#000" stroke-width="1.2"/><polygon points="926,233 952,248 926,263 900,248" fill="#bdbdbd" stroke="#000" stroke-width="1.2"/>
<polygon points="900,222 926,237 926,263 900,248" fill="#6e6e6e" stroke="#000" stroke-width="1.2"/><polygon points="926,237 952,222 952,248 926,263" fill="#2b2b2b" stroke="#000" stroke-width="1.2"/><polygon points="926,207 952,222 926,237 900,222" fill="#f2f2f2" stroke="#000" stroke-width="1.2"/>
<polygon points="952,300 978,315 978,341 952,326" fill="#6e6e6e" stroke="#000" stroke-width="1.2"/><polygon points="978,315 1004,300 1004,326 978,341" fill="#2b2b2b" stroke="#000" stroke-width="1.2"/><polygon points="978,285 1004,300 978,315 952,300" fill="#bdbdbd" stroke="#000" stroke-width="1.2"/>
<polygon points="952,274 978,289 978,315 952,300" fill="#6e6e6e" stroke="#000" stroke-width="1.2"/><polygon points="978,289 1004,274 1004,300 978,315" fill="#2b2b2b" stroke="#000" stroke-width="1.2"/><polygon points="978,259 1004,274 978,289 952,274" fill="#bdbdbd" stroke="#000" stroke-width="1.2"/>
<polygon points="952,248 978,263 978,289 952,274" fill="#6e6e6e" stroke="#000" stroke-width="1.2"/><polygon points="978,263 1004,248 1004,274 978,289" fill="#2b2b2b" stroke="#000" stroke-width="1.2"/><polygon points="978,233 1004,248 978,263 952,248" fill="#f2f2f2" stroke="#000" stroke-width="1.2"/>
<polygon points="822,315 848,330 848,356 822,341" fill="#6e6e6e" stroke="#000" stroke-width="1.2"/><polygon points="848,330 874,315 874,341 848,356" fill="#2b2b2b" stroke="#000" stroke-width="1.2"/><polygon points="848,300 874,315 848,330 822,315" fill="#bdbdbd" stroke="#000" stroke-width="1.2"/>
<polygon points="822,289 848,304 848,330 822,315" fill="#6e6e6e" stroke="#000" stroke-width="1.2"/><polygon points="848,304 874,289 874,315 848,330" fill="#2b2b2b" stroke="#000" stroke-width="1.2"/><polygon points="848,274 874,289 848,304 822,289" fill="#f2f2f2" stroke="#000" stroke-width="1.2"/>
<polygon points="874,315 900,330 900,356 874,341" fill="#6e6e6e" stroke="#000" stroke-width="1.2"/><polygon points="900,330 926,315 926,341 900,356" fill="#2b2b2b" stroke="#000" stroke-width="1.2"/><polygon points="900,300 926,315 900,330 874,315" fill="#bdbdbd" stroke="#000" stroke-width="1.2"/>
<polygon points="874,289 900,304 900,330 874,315" fill="#6e6e6e" stroke="#000" stroke-width="1.2"/><polygon points="900,304 926,289 926,315 900,330" fill="#2b2b2b" stroke="#000" stroke-width="1.2"/><polygon points="900,274 926,289 900,304 874,289" fill="#bdbdbd" stroke="#000" stroke-width="1.2"/>
<polygon points="874,263 900,278 900,304 874,289" fill="#6e6e6e" stroke="#000" stroke-width="1.2"/><polygon points="900,278 926,263 926,289 900,304" fill="#2b2b2b" stroke="#000" stroke-width="1.2"/><polygon points="900,248 926,263 900,278 874,263" fill="#f2f2f2" stroke="#000" stroke-width="1.2"/>
<polygon points="926,315 952,330 952,356 926,341" fill="#6e6e6e" stroke="#000" stroke-width="1.2"/><polygon points="952,330 978,315 978,341 952,356" fill="#2b2b2b" stroke="#000" stroke-width="1.2"/><polygon points="952,300 978,315 952,330 926,315" fill="#bdbdbd" stroke="#000" stroke-width="1.2"/>
<polygon points="926,289 952,304 952,330 926,315" fill="#6e6e6e" stroke="#000" stroke-width="1.2"/><polygon points="952,304 978,289 978,315 952,330" fill="#2b2b2b" stroke="#000" stroke-width="1.2"/><polygon points="952,274 978,289 952,304 926,289" fill="#f2f2f2" stroke="#000" stroke-width="1.2"/>
<polygon points="848,330 874,345 874,371 848,356" fill="#6e6e6e" stroke="#000" stroke-width="1.2"/><polygon points="874,345 900,330 900,356 874,371" fill="#2b2b2b" stroke="#000" stroke-width="1.2"/><polygon points="874,315 900,330 874,345 848,330" fill="#bdbdbd" stroke="#000" stroke-width="1.2"/>
<polygon points="848,304 874,319 874,345 848,330" fill="#6e6e6e" stroke="#000" stroke-width="1.2"/><polygon points="874,319 900,304 900,330 874,345" fill="#2b2b2b" stroke="#000" stroke-width="1.2"/><polygon points="874,289 900,304 874,319 848,304" fill="#f2f2f2" stroke="#000" stroke-width="1.2"/>
<polygon points="900,330 926,345 926,371 900,356" fill="#6e6e6e" stroke="#000" stroke-width="1.2"/><polygon points="926,345 952,330 952,356 926,371" fill="#2b2b2b" stroke="#000" stroke-width="1.2"/><polygon points="926,315 952,330 926,345 900,330" fill="#bdbdbd" stroke="#000" stroke-width="1.2"/>
<polygon points="900,304 926,319 926,345 900,330" fill="#6e6e6e" stroke="#000" stroke-width="1.2"/><polygon points="926,319 952,304 952,330 926,345" fill="#2b2b2b" stroke="#000" stroke-width="1.2"/><polygon points="926,289 952,304 926,319 900,304" fill="#f2f2f2" stroke="#000" stroke-width="1.2"/>
<polygon points="874,345 900,360 900,386 874,371" fill="#6e6e6e" stroke="#000" stroke-width="1.2"/><polygon points="900,360 926,345 926,371 900,386" fill="#2b2b2b" stroke="#000" stroke-width="1.2"/><polygon points="900,330 926,345 900,360 874,345" fill="#f2f2f2" stroke="#000" stroke-width="1.2"/>
  </g>
</svg>
